<svg width="15" height="15" viewBox="0 0 15 15" fill="none" xmlns="http://www.w3.org/2000/svg">
<path d="M14.4062 13.655L10.3942 9.64302C11.3583 8.48559 11.8391 7.00102 11.7365 5.49815C11.6339 3.99528 10.9559 2.58982 9.84343 1.57413C8.73098 0.558451 7.26979 0.0107504 5.76381 0.0449691C4.25783 0.0791877 2.82302 0.692691 1.75785 1.75785C0.692691 2.82302 0.0791877 4.25783 0.0449691 5.76381C0.0107504 7.26979 0.558451 8.73098 1.57413 9.84343C2.58982 10.9559 3.99528 11.6339 5.49815 11.7365C7.00102 11.8391 8.48559 11.3583 9.64302 10.3942L13.655 14.4062L14.4062 13.655ZM1.12495 5.9062C1.12495 4.96056 1.40537 4.03616 1.93074 3.24988C2.45611 2.46361 3.20284 1.85079 4.0765 1.48891C4.95016 1.12702 5.91151 1.03234 6.83898 1.21683C7.76645 1.40131 8.61839 1.85668 9.28706 2.52535C9.95573 3.19402 10.4111 4.04596 10.5956 4.97343C10.7801 5.9009 10.6854 6.86225 10.3235 7.73591C9.96162 8.60957 9.3488 9.3563 8.56252 9.88167C7.77625 10.407 6.85185 10.6875 5.9062 10.6875C4.63857 10.686 3.42326 10.1819 2.5269 9.28551C1.63055 8.38915 1.12636 7.17384 1.12495 5.9062Z" fill="black"/>
</svg>
